<svg width="57" height="41" viewBox="0 0 57 41" fill="none" xmlns="http://www.w3.org/2000/svg">
<path d="M11.4388 16.0994L7.11835 10.0798L2.82034 16.0994H0.581787V14.0037H1.74583L5.81999 8.29626L1.74583 2.58885H0.581787V0.493164H2.82034L7.11835 6.51269L11.4388 0.493164H13.6773V2.58885H12.5133L8.4391 8.29626L12.5133 14.0037H13.6773V16.0994H11.4388Z" fill="url(#paint0_linear_201_889)"/>
<path d="M17.9314 16.0994L15.6929 13.1119V3.48063L17.9314 0.493164H25.4977V2.58885H18.9612L17.7747 4.19406V7.293H23.9755V9.38869H17.7747V12.3985L18.9612 14.0037H25.4977V16.0994H17.9314Z" fill="url(#paint1_linear_201_889)"/>
<path d="M37.0558 16.0994H30.6536L27.2957 13.1788V11.15H29.3776V12.2424L31.4147 14.0037H36.2947L38.3989 12.2201V10.5034L37.2125 9.47787H29.8029L27.2957 7.33759V3.39146L30.7207 0.493164H37.123L40.4808 3.41375V5.6655H38.3989V4.35012L36.3395 2.58885H31.4594L29.3776 4.35012V6.35663L30.564 7.38218H37.9512L40.4808 9.52246V13.2011L37.0558 16.0994Z" fill="url(#paint2_linear_201_889)"/>
<path d="M50.5978 2.58885L49.4338 4.17177V16.0994H47.3519V4.17177L46.1655 2.58885H42.2704V0.493164H47.1728L48.3817 2.07608L49.5905 0.493164H54.5601V2.58885H50.5978Z" fill="url(#paint3_linear_201_889)"/>
<path d="M3.8053 27.0509L2.64125 28.6338V31.6213H8.48387V33.717H2.64125V40.5614H0.581787V27.9204L2.77557 24.9552H10.2971V27.0509H3.8053Z" fill="url(#paint4_linear_201_889)"/>
<path d="M23.4577 40.5614H14.3468L12.0858 37.5963V27.9204L14.3468 24.9552H23.4577L25.6962 27.9204V37.5963L23.4577 40.5614ZM23.6144 28.6338L22.4279 27.0509H15.3765L14.1677 28.6338V36.8828L15.3765 38.4657H22.4279L23.6144 36.8828V28.6338Z" fill="url(#paint5_linear_201_889)"/>
<path d="M30.1287 40.5614L27.9349 37.5963V24.9552H29.972V36.8828L31.1361 38.4657H36.3967V40.5614H30.1287Z" fill="url(#paint6_linear_201_889)"/>
<path d="M38.1877 40.5614V24.9552H40.2024V40.5614H38.1877Z" fill="url(#paint7_linear_201_889)"/>
<path d="M53.8224 40.5614H44.7115L42.4505 37.5963V27.9204L44.7115 24.9552H53.8224L56.0609 27.9204V37.5963L53.8224 40.5614ZM53.9791 28.6338L52.7926 27.0509H45.7412L44.5324 28.6338V36.8828L45.7412 38.4657H52.7926L53.9791 36.8828V28.6338Z" fill="url(#paint8_linear_201_889)"/>
<defs>
<linearGradient id="paint0_linear_201_889" x1="28.3214" y1="0.493164" x2="28.3214" y2="40.5614" gradientUnits="userSpaceOnUse">
<stop stop-color="#D63882"/>
<stop offset="1" stop-color="#6938D2"/>
</linearGradient>
<linearGradient id="paint1_linear_201_889" x1="28.3214" y1="0.493164" x2="28.3214" y2="40.5614" gradientUnits="userSpaceOnUse">
<stop stop-color="#D63882"/>
<stop offset="1" stop-color="#6938D2"/>
</linearGradient>
<linearGradient id="paint2_linear_201_889" x1="28.3214" y1="0.493164" x2="28.3214" y2="40.5614" gradientUnits="userSpaceOnUse">
<stop stop-color="#D63882"/>
<stop offset="1" stop-color="#6938D2"/>
</linearGradient>
<linearGradient id="paint3_linear_201_889" x1="28.3214" y1="0.493164" x2="28.3214" y2="40.5614" gradientUnits="userSpaceOnUse">
<stop stop-color="#D63882"/>
<stop offset="1" stop-color="#6938D2"/>
</linearGradient>
<linearGradient id="paint4_linear_201_889" x1="28.3214" y1="0.493164" x2="28.3214" y2="40.5614" gradientUnits="userSpaceOnUse">
<stop stop-color="#D63882"/>
<stop offset="1" stop-color="#6938D2"/>
</linearGradient>
<linearGradient id="paint5_linear_201_889" x1="28.3214" y1="0.493164" x2="28.3214" y2="40.5614" gradientUnits="userSpaceOnUse">
<stop stop-color="#D63882"/>
<stop offset="1" stop-color="#6938D2"/>
</linearGradient>
<linearGradient id="paint6_linear_201_889" x1="28.3214" y1="0.493164" x2="28.3214" y2="40.5614" gradientUnits="userSpaceOnUse">
<stop stop-color="#D63882"/>
<stop offset="1" stop-color="#6938D2"/>
</linearGradient>
<linearGradient id="paint7_linear_201_889" x1="28.3214" y1="0.493164" x2="28.3214" y2="40.5614" gradientUnits="userSpaceOnUse">
<stop stop-color="#D63882"/>
<stop offset="1" stop-color="#6938D2"/>
</linearGradient>
<linearGradient id="paint8_linear_201_889" x1="28.3214" y1="0.493164" x2="28.3214" y2="40.5614" gradientUnits="userSpaceOnUse">
<stop stop-color="#D63882"/>
<stop offset="1" stop-color="#6938D2"/>
</linearGradient>
</defs>
</svg>
